# Tiled2Unity generated file. Do not modify by hand.
# Wavefront file for 'Level01-A-_mesh_0023.obj'

# Vertices (Count = 176)
v -52 -3 0
v -53 -3 0
v -53 -2 0
v -52 -2 0
v -53 -3 0
v -54 -3 0
v -54 -2 0
v -53 -2 0
v -54 -3 0
v -55 -3 0
v -55 -2 0
v -54 -2 0
v -55 -3 0
v -56 -3 0
v -56 -2 0
v -55 -2 0
v -56 -3 0
v -57 -3 0
v -57 -2 0
v -56 -2 0
v -57 -3 0
v -58 -3 0
v -58 -2 0
v -57 -2 0
v -58 -3 0
v -59 -3 0
v -59 -2 0
v -58 -2 0
v -59 -3 0
v -60 -3 0
v -60 -2 0
v -59 -2 0
v -60 -3 0
v -61 -3 0
v -61 -2 0
v -60 -2 0
v -61 -3 0
v -62 -3 0
v -62 -2 0
v -61 -2 0
v -52 -4 0
v -53 -4 0
v -53 -3 0
v -52 -3 0
v -53 -4 0
v -54 -4 0
v -54 -3 0
v -53 -3 0
v -54 -4 0
v -55 -4 0
v -55 -3 0
v -54 -3 0
v -55 -4 0
v -56 -4 0
v -56 -3 0
v -55 -3 0
v -56 -4 0
v -57 -4 0
v -57 -3 0
v -56 -3 0
v -57 -4 0
v -58 -4 0
v -58 -3 0
v -57 -3 0
v -58 -4 0
v -59 -4 0
v -59 -3 0
v -58 -3 0
v -59 -4 0
v -60 -4 0
v -60 -3 0
v -59 -3 0
v -60 -4 0
v -61 -4 0
v -61 -3 0
v -60 -3 0
v -61 -4 0
v -62 -4 0
v -62 -3 0
v -61 -3 0
v -51 -5 0
v -52 -5 0
v -52 -4 0
v -51 -4 0
v -52 -5 0
v -53 -5 0
v -53 -4 0
v -52 -4 0
v -53 -5 0
v -54 -5 0
v -54 -4 0
v -53 -4 0
v -54 -5 0
v -55 -5 0
v -55 -4 0
v -54 -4 0
v -55 -5 0
v -56 -5 0
v -56 -4 0
v -55 -4 0
v -56 -5 0
v -57 -5 0
v -57 -4 0
v -56 -4 0
v -57 -5 0
v -58 -5 0
v -58 -4 0
v -57 -4 0
v -58 -5 0
v -59 -5 0
v -59 -4 0
v -58 -4 0
v -59 -5 0
v -60 -5 0
v -60 -4 0
v -59 -4 0
v -60 -5 0
v -61 -5 0
v -61 -4 0
v -60 -4 0
v -61 -5 0
v -62 -5 0
v -62 -4 0
v -61 -4 0
v -25 -6 0
v -26 -6 0
v -26 -5 0
v -25 -5 0
v -26 -6 0
v -27 -6 0
v -27 -5 0
v -26 -5 0
v -51 -6 0
v -52 -6 0
v -52 -5 0
v -51 -5 0
v -52 -6 0
v -53 -6 0
v -53 -5 0
v -52 -5 0
v -53 -6 0
v -54 -6 0
v -54 -5 0
v -53 -5 0
v -54 -6 0
v -55 -6 0
v -55 -5 0
v -54 -5 0
v -55 -6 0
v -56 -6 0
v -56 -5 0
v -55 -5 0
v -56 -6 0
v -57 -6 0
v -57 -5 0
v -56 -5 0
v -57 -6 0
v -58 -6 0
v -58 -5 0
v -57 -5 0
v -58 -6 0
v -59 -6 0
v -59 -5 0
v -58 -5 0
v -59 -6 0
v -60 -6 0
v -60 -5 0
v -59 -5 0
v -60 -6 0
v -61 -6 0
v -61 -5 0
v -60 -5 0
v -61 -6 0
v -62 -6 0
v -62 -5 0
v -61 -5 0

# Texture cooridinates (Count = 29)
vt 0.5625 0.46875
vt 0.59375 0.46875
vt 0.59375 0.5
vt 0.5625 0.5
vt 0.625 0.46875
vt 0.625 0.5
vt 0.53125 0.46875
vt 0.53125 0.5
vt 0.5625 0.4375
vt 0.59375 0.4375
vt 0.625 0.4375
vt 0.53125 0.4375
vt 0.6875 0.40625
vt 0.71875 0.40625
vt 0.71875 0.4375
vt 0.6875 0.4375
vt 0.5625 0.40625
vt 0.59375 0.40625
vt 0.625 0.40625
vt 0.53125 0.40625
vt 0.75 0.40625
vt 0.75 0.4375
vt 0.6875 0.375
vt 0.71875 0.375
vt 0.75 0.375
vt 0.59375 0.375
vt 0.625 0.375
vt 0.5625 0.375
vt 0.53125 0.375

# Normal
vn 0 0 -1

# Mesh description
g Level01-A-_mesh_0023

# Faces
f 1/1/1 2/2/1 3/3/1 4/4/1
f 5/2/1 6/5/1 7/6/1 8/3/1
f 9/5/1 10/2/1 11/3/1 12/6/1
f 13/2/1 14/1/1 15/4/1 16/3/1
f 17/1/1 18/2/1 19/3/1 20/4/1
f 21/2/1 22/5/1 23/6/1 24/3/1
f 25/5/1 26/2/1 27/3/1 28/6/1
f 29/7/1 30/1/1 31/4/1 32/8/1
f 33/1/1 34/2/1 35/3/1 36/4/1
f 37/7/1 38/1/1 39/4/1 40/8/1
f 41/9/1 42/10/1 43/2/1 44/1/1
f 45/10/1 46/11/1 47/5/1 48/2/1
f 49/11/1 50/10/1 51/2/1 52/5/1
f 53/10/1 54/9/1 55/1/1 56/2/1
f 57/9/1 58/10/1 59/2/1 60/1/1
f 61/10/1 62/11/1 63/5/1 64/2/1
f 65/11/1 66/10/1 67/2/1 68/5/1
f 69/12/1 70/9/1 71/1/1 72/7/1
f 73/9/1 74/10/1 75/2/1 76/1/1
f 77/12/1 78/9/1 79/1/1 80/7/1
f 81/13/1 82/14/1 83/15/1 84/16/1
f 85/17/1 86/18/1 87/10/1 88/9/1
f 89/18/1 90/19/1 91/11/1 92/10/1
f 93/19/1 94/18/1 95/10/1 96/11/1
f 97/18/1 98/17/1 99/9/1 100/10/1
f 101/17/1 102/18/1 103/10/1 104/9/1
f 105/18/1 106/19/1 107/11/1 108/10/1
f 109/19/1 110/18/1 111/10/1 112/11/1
f 113/18/1 114/17/1 115/9/1 116/10/1
f 117/17/1 118/18/1 119/10/1 120/9/1
f 121/20/1 122/17/1 123/9/1 124/12/1
f 125/21/1 126/14/1 127/15/1 128/22/1
f 129/14/1 130/13/1 131/16/1 132/15/1
f 133/23/1 134/24/1 135/14/1 136/13/1
f 137/24/1 138/25/1 139/21/1 140/14/1
f 141/26/1 142/27/1 143/19/1 144/18/1
f 145/27/1 146/26/1 147/18/1 148/19/1
f 149/26/1 150/28/1 151/17/1 152/18/1
f 153/28/1 154/26/1 155/18/1 156/17/1
f 157/26/1 158/27/1 159/19/1 160/18/1
f 161/27/1 162/26/1 163/18/1 164/19/1
f 165/26/1 166/28/1 167/17/1 168/18/1
f 169/28/1 170/26/1 171/18/1 172/17/1
f 173/29/1 174/28/1 175/17/1 176/20/1

