# Tiled2Unity generated file. Do not modify by hand.
# Wavefront file for 'Level01-A-_mesh_0016.obj'

# Vertices (Count = 664)
v -38 -16 0
v -39 -16 0
v -39 -15 0
v -38 -15 0
v -39 -16 0
v -40 -16 0
v -40 -15 0
v -39 -15 0
v -33 -18 0
v -34 -18 0
v -34 -17 0
v -33 -17 0
v -35 -18 0
v -36 -18 0
v -36 -17 0
v -35 -17 0
v -36 -18 0
v -37 -18 0
v -37 -17 0
v -36 -17 0
v -40 -18 0
v -41 -18 0
v -41 -17 0
v -40 -17 0
v -41 -18 0
v -42 -18 0
v -42 -17 0
v -41 -17 0
v -57 -18 0
v -58 -18 0
v -58 -17 0
v -57 -17 0
v -59 -18 0
v -60 -18 0
v -60 -17 0
v -59 -17 0
v -33 -19 0
v -34 -19 0
v -34 -18 0
v -33 -18 0
v -35 -19 0
v -36 -19 0
v -36 -18 0
v -35 -18 0
v -36 -19 0
v -37 -19 0
v -37 -18 0
v -36 -18 0
v -41 -19 0
v -42 -19 0
v -42 -18 0
v -41 -18 0
v -42 -19 0
v -43 -19 0
v -43 -18 0
v -42 -18 0
v -44 -19 0
v -45 -19 0
v -45 -18 0
v -44 -18 0
v -38 -20 0
v -39 -20 0
v -39 -19 0
v -38 -19 0
v -39 -20 0
v -40 -20 0
v -40 -19 0
v -39 -19 0
v -40 -20 0
v -41 -20 0
v -41 -19 0
v -40 -19 0
v -41 -20 0
v -42 -20 0
v -42 -19 0
v -41 -19 0
v -56 -20 0
v -57 -20 0
v -57 -19 0
v -56 -19 0
v -57 -20 0
v -58 -20 0
v -58 -19 0
v -57 -19 0
v -24 -21 0
v -25 -21 0
v -25 -20 0
v -24 -20 0
v -25 -21 0
v -26 -21 0
v -26 -20 0
v -25 -20 0
v -26 -21 0
v -27 -21 0
v -27 -20 0
v -26 -20 0
v -51 -21 0
v -52 -21 0
v -52 -20 0
v -51 -20 0
v -52 -21 0
v -53 -21 0
v -53 -20 0
v -52 -20 0
v -53 -21 0
v -54 -21 0
v -54 -20 0
v -53 -20 0
v -54 -21 0
v -55 -21 0
v -55 -20 0
v -54 -20 0
v -56 -21 0
v -57 -21 0
v -57 -20 0
v -56 -20 0
v -57 -21 0
v -58 -21 0
v -58 -20 0
v -57 -20 0
v -58 -21 0
v -59 -21 0
v -59 -20 0
v -58 -20 0
v -59 -21 0
v -60 -21 0
v -60 -20 0
v -59 -20 0
v -60 -21 0
v -61 -21 0
v -61 -20 0
v -60 -20 0
v -14 -22 0
v -15 -22 0
v -15 -21 0
v -14 -21 0
v -17 -22 0
v -18 -22 0
v -18 -21 0
v -17 -21 0
v -23 -22 0
v -24 -22 0
v -24 -21 0
v -23 -21 0
v -26 -22 0
v -27 -22 0
v -27 -21 0
v -26 -21 0
v -44 -22 0
v -45 -22 0
v -45 -21 0
v -44 -21 0
v -50 -22 0
v -51 -22 0
v -51 -21 0
v -50 -21 0
v -51 -22 0
v -52 -22 0
v -52 -21 0
v -51 -21 0
v -60 -22 0
v -61 -22 0
v -61 -21 0
v -60 -21 0
v -14 -23 0
v -15 -23 0
v -15 -22 0
v -14 -22 0
v -17 -23 0
v -18 -23 0
v -18 -22 0
v -17 -22 0
v -19 -23 0
v -20 -23 0
v -20 -22 0
v -19 -22 0
v -24 -23 0
v -25 -23 0
v -25 -22 0
v -24 -22 0
v -26 -23 0
v -27 -23 0
v -27 -22 0
v -26 -22 0
v -31 -23 0
v -32 -23 0
v -32 -22 0
v -31 -22 0
v -32 -23 0
v -33 -23 0
v -33 -22 0
v -32 -22 0
v -48 -23 0
v -49 -23 0
v -49 -22 0
v -48 -22 0
v -49 -23 0
v -50 -23 0
v -50 -22 0
v -49 -22 0
v -50 -23 0
v -51 -23 0
v -51 -22 0
v -50 -22 0
v -51 -23 0
v -52 -23 0
v -52 -22 0
v -51 -22 0
v -60 -23 0
v -61 -23 0
v -61 -22 0
v -60 -22 0
v -19 -24 0
v -20 -24 0
v -20 -23 0
v -19 -23 0
v -24 -24 0
v -25 -24 0
v -25 -23 0
v -24 -23 0
v -48 -24 0
v -49 -24 0
v -49 -23 0
v -48 -23 0
v -52 -24 0
v -53 -24 0
v -53 -23 0
v -52 -23 0
v -45 -25 0
v -46 -25 0
v -46 -24 0
v -45 -24 0
v -46 -25 0
v -47 -25 0
v -47 -24 0
v -46 -24 0
v -47 -25 0
v -48 -25 0
v -48 -24 0
v -47 -24 0
v -31 -26 0
v -32 -26 0
v -32 -25 0
v -31 -25 0
v -32 -26 0
v -33 -26 0
v -33 -25 0
v -32 -25 0
v -45 -26 0
v -46 -26 0
v -46 -25 0
v -45 -25 0
v -48 -26 0
v -49 -26 0
v -49 -25 0
v -48 -25 0
v -13 -27 0
v -14 -27 0
v -14 -26 0
v -13 -26 0
v -16 -27 0
v -17 -27 0
v -17 -26 0
v -16 -26 0
v -48 -27 0
v -49 -27 0
v -49 -26 0
v -48 -26 0
v -49 -28 0
v -50 -28 0
v -50 -27 0
v -49 -27 0
v -50 -28 0
v -51 -28 0
v -51 -27 0
v -50 -27 0
v -2 -29 0
v -3 -29 0
v -3 -28 0
v -2 -28 0
v -3 -29 0
v -4 -29 0
v -4 -28 0
v -3 -28 0
v -50 -29 0
v -51 -29 0
v -51 -28 0
v -50 -28 0
v -55 -29 0
v -56 -29 0
v -56 -28 0
v -55 -28 0
v -13 -30 0
v -14 -30 0
v -14 -29 0
v -13 -29 0
v -16 -30 0
v -17 -30 0
v -17 -29 0
v -16 -29 0
v -53 -30 0
v -54 -30 0
v -54 -29 0
v -53 -29 0
v -54 -30 0
v -55 -30 0
v -55 -29 0
v -54 -29 0
v -55 -30 0
v -56 -30 0
v -56 -29 0
v -55 -29 0
v -3 -31 0
v -4 -31 0
v -4 -30 0
v -3 -30 0
v -4 -31 0
v -5 -31 0
v -5 -30 0
v -4 -30 0
v -51 -31 0
v -52 -31 0
v -52 -30 0
v -51 -30 0
v -53 -31 0
v -54 -31 0
v -54 -30 0
v -53 -30 0
v -6 -33 0
v -7 -33 0
v -7 -32 0
v -6 -32 0
v -7 -33 0
v -8 -33 0
v -8 -32 0
v -7 -32 0
v -8 -33 0
v -9 -33 0
v -9 -32 0
v -8 -32 0
v -59 -33 0
v -60 -33 0
v -60 -32 0
v -59 -32 0
v -8 -34 0
v -9 -34 0
v -9 -33 0
v -8 -33 0
v -51 -34 0
v -52 -34 0
v -52 -33 0
v -51 -33 0
v -8 -35 0
v -9 -35 0
v -9 -34 0
v -8 -34 0
v -54 -35 0
v -55 -35 0
v -55 -34 0
v -54 -34 0
v -2 -36 0
v -3 -36 0
v -3 -35 0
v -2 -35 0
v -5 -36 0
v -6 -36 0
v -6 -35 0
v -5 -35 0
v -6 -36 0
v -7 -36 0
v -7 -35 0
v -6 -35 0
v -53 -36 0
v -54 -36 0
v -54 -35 0
v -53 -35 0
v -54 -36 0
v -55 -36 0
v -55 -35 0
v -54 -35 0
v -2 -37 0
v -3 -37 0
v -3 -36 0
v -2 -36 0
v -5 -37 0
v -6 -37 0
v -6 -36 0
v -5 -36 0
v -8 -37 0
v -9 -37 0
v -9 -36 0
v -8 -36 0
v -9 -37 0
v -10 -37 0
v -10 -36 0
v -9 -36 0
v -10 -37 0
v -11 -37 0
v -11 -36 0
v -10 -36 0
v -50 -37 0
v -51 -37 0
v -51 -36 0
v -50 -36 0
v -51 -37 0
v -52 -37 0
v -52 -36 0
v -51 -36 0
v -52 -37 0
v -53 -37 0
v -53 -36 0
v -52 -36 0
v -53 -37 0
v -54 -37 0
v -54 -36 0
v -53 -36 0
v -59 -37 0
v -60 -37 0
v -60 -36 0
v -59 -36 0
v -9 -38 0
v -10 -38 0
v -10 -37 0
v -9 -37 0
v -10 -38 0
v -11 -38 0
v -11 -37 0
v -10 -37 0
v -50 -38 0
v -51 -38 0
v -51 -37 0
v -50 -37 0
v -51 -38 0
v -52 -38 0
v -52 -37 0
v -51 -37 0
v -52 -38 0
v -53 -38 0
v -53 -37 0
v -52 -37 0
v -53 -38 0
v -54 -38 0
v -54 -37 0
v -53 -37 0
v -61 -38 0
v -62 -38 0
v -62 -37 0
v -61 -37 0
v -3 -39 0
v -4 -39 0
v -4 -38 0
v -3 -38 0
v -4 -39 0
v -5 -39 0
v -5 -38 0
v -4 -38 0
v -5 -39 0
v -6 -39 0
v -6 -38 0
v -5 -38 0
v -9 -39 0
v -10 -39 0
v -10 -38 0
v -9 -38 0
v -10 -39 0
v -11 -39 0
v -11 -38 0
v -10 -38 0
v -11 -39 0
v -12 -39 0
v -12 -38 0
v -11 -38 0
v -17 -39 0
v -18 -39 0
v -18 -38 0
v -17 -38 0
v -18 -39 0
v -19 -39 0
v -19 -38 0
v -18 -38 0
v -20 -39 0
v -21 -39 0
v -21 -38 0
v -20 -38 0
v -51 -39 0
v -52 -39 0
v -52 -38 0
v -51 -38 0
v -52 -39 0
v -53 -39 0
v -53 -38 0
v -52 -38 0
v -53 -39 0
v -54 -39 0
v -54 -38 0
v -53 -38 0
v -61 -39 0
v -62 -39 0
v -62 -38 0
v -61 -38 0
v -11 -40 0
v -12 -40 0
v -12 -39 0
v -11 -39 0
v -8 -41 0
v -9 -41 0
v -9 -40 0
v -8 -40 0
v -9 -41 0
v -10 -41 0
v -10 -40 0
v -9 -40 0
v -10 -41 0
v -11 -41 0
v -11 -40 0
v -10 -40 0
v -11 -41 0
v -12 -41 0
v -12 -40 0
v -11 -40 0
v -3 -42 0
v -4 -42 0
v -4 -41 0
v -3 -41 0
v -4 -42 0
v -5 -42 0
v -5 -41 0
v -4 -41 0
v -5 -42 0
v -6 -42 0
v -6 -41 0
v -5 -41 0
v -6 -42 0
v -7 -42 0
v -7 -41 0
v -6 -41 0
v -8 -42 0
v -9 -42 0
v -9 -41 0
v -8 -41 0
v -9 -42 0
v -10 -42 0
v -10 -41 0
v -9 -41 0
v -10 -42 0
v -11 -42 0
v -11 -41 0
v -10 -41 0
v -11 -42 0
v -12 -42 0
v -12 -41 0
v -11 -41 0
v -60 -46 0
v -61 -46 0
v -61 -45 0
v -60 -45 0
v -13 -49 0
v -14 -49 0
v -14 -48 0
v -13 -48 0
v -14 -49 0
v -15 -49 0
v -15 -48 0
v -14 -48 0
v -15 -49 0
v -16 -49 0
v -16 -48 0
v -15 -48 0
v -16 -49 0
v -17 -49 0
v -17 -48 0
v -16 -48 0
v -19 -49 0
v -20 -49 0
v -20 -48 0
v -19 -48 0
v -20 -49 0
v -21 -49 0
v -21 -48 0
v -20 -48 0
v -21 -49 0
v -22 -49 0
v -22 -48 0
v -21 -48 0
v -24 -49 0
v -25 -49 0
v -25 -48 0
v -24 -48 0
v -25 -49 0
v -26 -49 0
v -26 -48 0
v -25 -48 0
v -13 -50 0
v -14 -50 0
v -14 -49 0
v -13 -49 0
v -14 -50 0
v -15 -50 0
v -15 -49 0
v -14 -49 0
v -15 -50 0
v -16 -50 0
v -16 -49 0
v -15 -49 0
v -20 -50 0
v -21 -50 0
v -21 -49 0
v -20 -49 0
v -21 -50 0
v -22 -50 0
v -22 -49 0
v -21 -49 0
v -24 -50 0
v -25 -50 0
v -25 -49 0
v -24 -49 0
v -25 -50 0
v -26 -50 0
v -26 -49 0
v -25 -49 0
v -20 -51 0
v -21 -51 0
v -21 -50 0
v -20 -50 0
v -21 -51 0
v -22 -51 0
v -22 -50 0
v -21 -50 0
v -16 -52 0
v -17 -52 0
v -17 -51 0
v -16 -51 0
v -20 -52 0
v -21 -52 0
v -21 -51 0
v -20 -51 0
v -21 -52 0
v -22 -52 0
v -22 -51 0
v -21 -51 0
v -10 -59 0
v -11 -59 0
v -11 -58 0
v -10 -58 0
v -13 -59 0
v -14 -59 0
v -14 -58 0
v -13 -58 0
v -8 -61 0
v -9 -61 0
v -9 -60 0
v -8 -60 0
v -13 -61 0
v -14 -61 0
v -14 -60 0
v -13 -60 0
v -15 -61 0
v -16 -61 0
v -16 -60 0
v -15 -60 0
v -14 -62 0
v -15 -62 0
v -15 -61 0
v -14 -61 0

# Texture cooridinates (Count = 35)
vt 0 0.625
vt 0.03125 0.625
vt 0.03125 0.6666667
vt 0 0.6666667
vt 0.09375 0.625
vt 0.125 0.625
vt 0.125 0.6666667
vt 0.09375 0.6666667
vt 0.0625 0.625
vt 0.0625 0.6666667
vt 0.09375 0.5
vt 0.09375 0.5416667
vt 0.125 0.5416667
vt 0.125 0.5
vt 0 0.5
vt 0.03125 0.5
vt 0.03125 0.5416667
vt 0 0.5416667
vt 0.0625 0.5
vt 0.0625 0.5416667
vt 0.09375 0.7083333
vt 0.125 0.7083333
vt 0.125 0.75
vt 0.09375 0.75
vt 0.03125 0.5833333
vt 0.0625 0.5833333
vt 0.09375 0.5833333
vt 0.125 0.5833333
vt 0.0625 0.7083333
vt 0.0625 0.75
vt 0.03125 0.7083333
vt 0 0.7083333
vt 0 0.5833333
vt 0.03125 0.75
vt 0 0.75

# Normal
vn 0 0 -1

# Mesh description
g Level01-A-_mesh_0016

# Faces
f 1/1/1 2/2/1 3/3/1 4/4/1
f 5/5/1 6/6/1 7/7/1 8/8/1
f 9/1/1 10/2/1 11/3/1 12/4/1
f 13/9/1 14/5/1 15/8/1 16/10/1
f 17/5/1 18/6/1 19/7/1 20/8/1
f 21/9/1 22/5/1 23/8/1 24/10/1
f 25/5/1 26/6/1 27/7/1 28/8/1
f 29/11/1 30/12/1 31/13/1 32/14/1
f 33/5/1 34/6/1 35/7/1 36/8/1
f 37/15/1 38/16/1 39/17/1 40/18/1
f 41/19/1 42/11/1 43/12/1 44/20/1
f 45/11/1 46/14/1 47/13/1 48/12/1
f 49/21/1 50/22/1 51/23/1 52/24/1
f 53/9/1 54/5/1 55/8/1 56/10/1
f 57/5/1 58/6/1 59/7/1 60/8/1
f 61/15/1 62/16/1 63/17/1 64/18/1
f 65/16/1 66/19/1 67/20/1 68/17/1
f 69/19/1 70/11/1 71/12/1 72/20/1
f 73/16/1 74/19/1 75/20/1 76/17/1
f 77/2/1 78/9/1 79/10/1 80/3/1
f 81/12/1 82/11/1 83/14/1 84/13/1
f 85/2/1 86/9/1 87/10/1 88/3/1
f 89/9/1 90/5/1 91/8/1 92/10/1
f 93/5/1 94/6/1 95/7/1 96/8/1
f 97/1/1 98/2/1 99/3/1 100/4/1
f 101/2/1 102/9/1 103/10/1 104/3/1
f 105/9/1 106/5/1 107/8/1 108/10/1
f 109/2/1 110/9/1 111/10/1 112/3/1
f 113/25/1 114/26/1 115/9/1 116/2/1
f 117/21/1 118/22/1 119/23/1 120/24/1
f 121/2/1 122/9/1 123/10/1 124/3/1
f 125/9/1 126/5/1 127/8/1 128/10/1
f 129/5/1 130/6/1 131/7/1 132/8/1
f 133/1/1 134/2/1 135/3/1 136/4/1
f 137/5/1 138/6/1 139/7/1 140/8/1
f 141/15/1 142/16/1 143/17/1 144/18/1
f 145/27/1 146/28/1 147/6/1 148/5/1
f 149/11/1 150/14/1 151/13/1 152/12/1
f 153/13/1 154/12/1 155/11/1 156/14/1
f 157/29/1 158/21/1 159/24/1 160/30/1
f 161/27/1 162/28/1 163/6/1 164/5/1
f 165/15/1 166/16/1 167/17/1 168/18/1
f 169/11/1 170/14/1 171/13/1 172/12/1
f 173/1/1 174/2/1 175/3/1 176/4/1
f 177/15/1 178/16/1 179/17/1 180/18/1
f 181/11/1 182/14/1 183/13/1 184/12/1
f 185/1/1 186/2/1 187/3/1 188/4/1
f 189/5/1 190/6/1 191/7/1 192/8/1
f 193/1/1 194/2/1 195/3/1 196/4/1
f 197/2/1 198/9/1 199/10/1 200/3/1
f 201/29/1 202/21/1 203/24/1 204/30/1
f 205/17/1 206/20/1 207/26/1 208/25/1
f 209/12/1 210/13/1 211/28/1 212/27/1
f 213/15/1 214/16/1 215/17/1 216/18/1
f 217/11/1 218/14/1 219/13/1 220/12/1
f 221/15/1 222/16/1 223/17/1 224/18/1
f 225/16/1 226/19/1 227/20/1 228/17/1
f 229/1/1 230/2/1 231/3/1 232/4/1
f 233/2/1 234/9/1 235/10/1 236/3/1
f 237/9/1 238/5/1 239/8/1 240/10/1
f 241/15/1 242/16/1 243/17/1 244/18/1
f 245/11/1 246/14/1 247/13/1 248/12/1
f 249/15/1 250/16/1 251/17/1 252/18/1
f 253/10/1 254/8/1 255/21/1 256/29/1
f 257/1/1 258/2/1 259/3/1 260/4/1
f 261/5/1 262/6/1 263/7/1 264/8/1
f 265/4/1 266/3/1 267/31/1 268/32/1
f 269/15/1 270/16/1 271/17/1 272/18/1
f 273/16/1 274/19/1 275/20/1 276/17/1
f 277/1/1 278/2/1 279/3/1 280/4/1
f 281/5/1 282/6/1 283/7/1 284/8/1
f 285/1/1 286/2/1 287/3/1 288/4/1
f 289/20/1 290/12/1 291/27/1 292/26/1
f 293/15/1 294/16/1 295/17/1 296/18/1
f 297/11/1 298/14/1 299/13/1 300/12/1
f 301/8/1 302/7/1 303/22/1 304/21/1
f 305/16/1 306/19/1 307/20/1 308/17/1
f 309/33/1 310/25/1 311/2/1 312/1/1
f 313/1/1 314/2/1 315/3/1 316/4/1
f 317/5/1 318/6/1 319/7/1 320/8/1
f 321/11/1 322/12/1 323/13/1 324/14/1
f 325/21/1 326/22/1 327/23/1 328/24/1
f 329/1/1 330/2/1 331/3/1 332/4/1
f 333/2/1 334/9/1 335/10/1 336/3/1
f 337/5/1 338/6/1 339/7/1 340/8/1
f 341/20/1 342/12/1 343/27/1 344/26/1
f 345/11/1 346/14/1 347/13/1 348/12/1
f 349/15/1 350/16/1 351/17/1 352/18/1
f 353/5/1 354/6/1 355/7/1 356/8/1
f 357/17/1 358/20/1 359/26/1 360/25/1
f 361/33/1 362/25/1 363/2/1 364/1/1
f 365/27/1 366/28/1 367/6/1 368/5/1
f 369/15/1 370/16/1 371/17/1 372/18/1
f 373/15/1 374/16/1 375/17/1 376/18/1
f 377/16/1 378/19/1 379/20/1 380/17/1
f 381/18/1 382/17/1 383/25/1 384/33/1
f 385/12/1 386/13/1 387/28/1 388/27/1
f 389/12/1 390/13/1 391/28/1 392/27/1
f 393/1/1 394/2/1 395/3/1 396/4/1
f 397/5/1 398/6/1 399/7/1 400/8/1
f 401/1/1 402/2/1 403/3/1 404/4/1
f 405/2/1 406/9/1 407/10/1 408/3/1
f 409/9/1 410/5/1 411/8/1 412/10/1
f 413/5/1 414/6/1 415/7/1 416/8/1
f 417/20/1 418/12/1 419/27/1 420/26/1
f 421/33/1 422/25/1 423/2/1 424/1/1
f 425/27/1 426/28/1 427/6/1 428/5/1
f 429/15/1 430/16/1 431/17/1 432/18/1
f 433/10/1 434/8/1 435/21/1 436/29/1
f 437/17/1 438/20/1 439/26/1 440/25/1
f 441/12/1 442/13/1 443/28/1 444/27/1
f 445/15/1 446/16/1 447/17/1 448/18/1
f 449/1/1 450/2/1 451/3/1 452/4/1
f 453/2/1 454/9/1 455/10/1 456/3/1
f 457/9/1 458/5/1 459/8/1 460/10/1
f 461/29/1 462/21/1 463/24/1 464/30/1
f 465/21/1 466/22/1 467/23/1 468/24/1
f 469/5/1 470/6/1 471/7/1 472/8/1
f 473/32/1 474/31/1 475/34/1 476/35/1
f 477/31/1 478/29/1 479/30/1 480/34/1
f 481/5/1 482/6/1 483/7/1 484/8/1
f 485/15/1 486/16/1 487/17/1 488/18/1
f 489/16/1 490/19/1 491/20/1 492/17/1
f 493/11/1 494/14/1 495/13/1 496/12/1
f 497/5/1 498/6/1 499/7/1 500/8/1
f 501/11/1 502/14/1 503/13/1 504/12/1
f 505/1/1 506/2/1 507/3/1 508/4/1
f 509/2/1 510/9/1 511/10/1 512/3/1
f 513/9/1 514/5/1 515/8/1 516/10/1
f 517/5/1 518/6/1 519/7/1 520/8/1
f 521/15/1 522/16/1 523/17/1 524/18/1
f 525/16/1 526/19/1 527/20/1 528/17/1
f 529/19/1 530/11/1 531/12/1 532/20/1
f 533/11/1 534/14/1 535/13/1 536/12/1
f 537/33/1 538/25/1 539/2/1 540/1/1
f 541/25/1 542/26/1 543/9/1 544/2/1
f 545/26/1 546/27/1 547/5/1 548/9/1
f 549/27/1 550/28/1 551/6/1 552/5/1
f 553/11/1 554/14/1 555/13/1 556/12/1
f 557/1/1 558/2/1 559/3/1 560/4/1
f 561/2/1 562/9/1 563/10/1 564/3/1
f 565/9/1 566/5/1 567/8/1 568/10/1
f 569/1/1 570/2/1 571/3/1 572/4/1
f 573/5/1 574/6/1 575/7/1 576/8/1
f 577/32/1 578/31/1 579/34/1 580/35/1
f 581/31/1 582/29/1 583/30/1 584/34/1
f 585/9/1 586/5/1 587/8/1 588/10/1
f 589/5/1 590/6/1 591/7/1 592/8/1
f 593/15/1 594/16/1 595/17/1 596/18/1
f 597/16/1 598/19/1 599/20/1 600/17/1
f 601/19/1 602/11/1 603/12/1 604/20/1
f 605/4/1 606/3/1 607/31/1 608/32/1
f 609/3/1 610/10/1 611/29/1 612/31/1
f 613/19/1 614/11/1 615/12/1 616/20/1
f 617/11/1 618/14/1 619/13/1 620/12/1
f 621/9/1 622/5/1 623/8/1 624/10/1
f 625/5/1 626/6/1 627/7/1 628/8/1
f 629/15/1 630/16/1 631/17/1 632/18/1
f 633/19/1 634/11/1 635/12/1 636/20/1
f 637/11/1 638/14/1 639/13/1 640/12/1
f 641/1/1 642/2/1 643/3/1 644/4/1
f 645/5/1 646/6/1 647/7/1 648/8/1
f 649/1/1 650/2/1 651/3/1 652/4/1
f 653/21/1 654/22/1 655/23/1 656/24/1
f 657/5/1 658/6/1 659/7/1 660/8/1
f 661/16/1 662/19/1 663/20/1 664/17/1

