# Tiled2Unity generated file. Do not modify by hand.
# Wavefront file for 'Level01-A-_mesh_0018.obj'

# Vertices (Count = 96)
v -12 -21 0
v -13 -21 0
v -13 -20 0
v -12 -20 0
v -13 -21 0
v -14 -21 0
v -14 -20 0
v -13 -20 0
v -12 -22 0
v -13 -22 0
v -13 -21 0
v -12 -21 0
v -13 -22 0
v -14 -22 0
v -14 -21 0
v -13 -21 0
v -13 -28 0
v -14 -28 0
v -14 -27 0
v -13 -27 0
v -14 -28 0
v -15 -28 0
v -15 -27 0
v -14 -27 0
v -17 -28 0
v -18 -28 0
v -18 -27 0
v -17 -27 0
v -18 -28 0
v -19 -28 0
v -19 -27 0
v -18 -27 0
v -13 -29 0
v -14 -29 0
v -14 -28 0
v -13 -28 0
v -14 -29 0
v -15 -29 0
v -15 -28 0
v -14 -28 0
v -17 -29 0
v -18 -29 0
v -18 -28 0
v -17 -28 0
v -18 -29 0
v -19 -29 0
v -19 -28 0
v -18 -28 0
v -4 -36 0
v -5 -36 0
v -5 -35 0
v -4 -35 0
v -5 -36 0
v -6 -36 0
v -6 -35 0
v -5 -35 0
v -4 -37 0
v -5 -37 0
v -5 -36 0
v -4 -36 0
v -5 -37 0
v -6 -37 0
v -6 -36 0
v -5 -36 0
v -9 -38 0
v -10 -38 0
v -10 -37 0
v -9 -37 0
v -10 -38 0
v -11 -38 0
v -11 -37 0
v -10 -37 0
v -9 -39 0
v -10 -39 0
v -10 -38 0
v -9 -38 0
v -10 -39 0
v -11 -39 0
v -11 -38 0
v -10 -38 0
v -14 -41 0
v -15 -41 0
v -15 -40 0
v -14 -40 0
v -15 -41 0
v -16 -41 0
v -16 -40 0
v -15 -40 0
v -14 -42 0
v -15 -42 0
v -15 -41 0
v -14 -41 0
v -15 -42 0
v -16 -42 0
v -16 -41 0
v -15 -41 0

# Texture cooridinates (Count = 21)
vt 0.875 0.53125
vt 0.90625 0.53125
vt 0.90625 0.5625
vt 0.875 0.5625
vt 0.9375 0.53125
vt 0.9375 0.5625
vt 0.875 0.5
vt 0.90625 0.5
vt 0.9375 0.5
vt 0.84375 0.53125
vt 0.84375 0.5625
vt 0.8125 0.53125
vt 0.8125 0.5625
vt 0.84375 0.5
vt 0.8125 0.5
vt 0.96875 0.53125
vt 0.96875 0.5625
vt 1 0.53125
vt 1 0.5625
vt 0.96875 0.5
vt 1 0.5

# Normal
vn 0 0 -1

# Mesh description
g Level01-A-_mesh_0018

# Faces
f 1/1/1 2/2/1 3/3/1 4/4/1
f 5/2/1 6/5/1 7/6/1 8/3/1
f 9/7/1 10/8/1 11/2/1 12/1/1
f 13/8/1 14/9/1 15/5/1 16/2/1
f 17/5/1 18/2/1 19/3/1 20/6/1
f 21/2/1 22/1/1 23/4/1 24/3/1
f 25/1/1 26/10/1 27/11/1 28/4/1
f 29/10/1 30/12/1 31/13/1 32/11/1
f 33/9/1 34/8/1 35/2/1 36/5/1
f 37/8/1 38/7/1 39/1/1 40/2/1
f 41/7/1 42/14/1 43/10/1 44/1/1
f 45/14/1 46/15/1 47/12/1 48/10/1
f 49/1/1 50/2/1 51/3/1 52/4/1
f 53/2/1 54/5/1 55/6/1 56/3/1
f 57/7/1 58/8/1 59/2/1 60/1/1
f 61/8/1 62/9/1 63/5/1 64/2/1
f 65/12/1 66/10/1 67/11/1 68/13/1
f 69/10/1 70/1/1 71/4/1 72/11/1
f 73/15/1 74/14/1 75/10/1 76/12/1
f 77/14/1 78/7/1 79/1/1 80/10/1
f 81/5/1 82/16/1 83/17/1 84/6/1
f 85/16/1 86/18/1 87/19/1 88/17/1
f 89/9/1 90/20/1 91/16/1 92/5/1
f 93/20/1 94/21/1 95/18/1 96/16/1

