# Tiled2Unity generated file. Do not modify by hand.
# Wavefront file for 'Level01-A-_mesh_0022.obj'

# Vertices (Count = 216)
v -11 -3 0
v -12 -3 0
v -12 -2 0
v -11 -2 0
v -12 -3 0
v -13 -3 0
v -13 -2 0
v -12 -2 0
v -51 -3 0
v -52 -3 0
v -52 -2 0
v -51 -2 0
v -52 -3 0
v -53 -3 0
v -53 -2 0
v -52 -2 0
v -55 -3 0
v -56 -3 0
v -56 -2 0
v -55 -2 0
v -56 -3 0
v -57 -3 0
v -57 -2 0
v -56 -2 0
v -57 -3 0
v -58 -3 0
v -58 -2 0
v -57 -2 0
v -58 -3 0
v -59 -3 0
v -59 -2 0
v -58 -2 0
v -59 -3 0
v -60 -3 0
v -60 -2 0
v -59 -2 0
v -60 -3 0
v -61 -3 0
v -61 -2 0
v -60 -2 0
v -61 -3 0
v -62 -3 0
v -62 -2 0
v -61 -2 0
v -11 -4 0
v -12 -4 0
v -12 -3 0
v -11 -3 0
v -12 -4 0
v -13 -4 0
v -13 -3 0
v -12 -3 0
v -51 -4 0
v -52 -4 0
v -52 -3 0
v -51 -3 0
v -52 -4 0
v -53 -4 0
v -53 -3 0
v -52 -3 0
v -55 -4 0
v -56 -4 0
v -56 -3 0
v -55 -3 0
v -56 -4 0
v -57 -4 0
v -57 -3 0
v -56 -3 0
v -57 -4 0
v -58 -4 0
v -58 -3 0
v -57 -3 0
v -58 -4 0
v -59 -4 0
v -59 -3 0
v -58 -3 0
v -59 -4 0
v -60 -4 0
v -60 -3 0
v -59 -3 0
v -60 -4 0
v -61 -4 0
v -61 -3 0
v -60 -3 0
v -61 -4 0
v -62 -4 0
v -62 -3 0
v -61 -3 0
v -30 -5 0
v -31 -5 0
v -31 -4 0
v -30 -4 0
v -33 -5 0
v -34 -5 0
v -34 -4 0
v -33 -4 0
v -34 -5 0
v -35 -5 0
v -35 -4 0
v -34 -4 0
v -51 -5 0
v -52 -5 0
v -52 -4 0
v -51 -4 0
v -52 -5 0
v -53 -5 0
v -53 -4 0
v -52 -4 0
v -55 -5 0
v -56 -5 0
v -56 -4 0
v -55 -4 0
v -56 -5 0
v -57 -5 0
v -57 -4 0
v -56 -4 0
v -57 -5 0
v -58 -5 0
v -58 -4 0
v -57 -4 0
v -58 -5 0
v -59 -5 0
v -59 -4 0
v -58 -4 0
v -59 -5 0
v -60 -5 0
v -60 -4 0
v -59 -4 0
v -60 -5 0
v -61 -5 0
v -61 -4 0
v -60 -4 0
v -61 -5 0
v -62 -5 0
v -62 -4 0
v -61 -4 0
v -24 -6 0
v -25 -6 0
v -25 -5 0
v -24 -5 0
v -25 -6 0
v -26 -6 0
v -26 -5 0
v -25 -5 0
v -26 -6 0
v -27 -6 0
v -27 -5 0
v -26 -5 0
v -27 -6 0
v -28 -6 0
v -28 -5 0
v -27 -5 0
v -28 -6 0
v -29 -6 0
v -29 -5 0
v -28 -5 0
v -29 -6 0
v -30 -6 0
v -30 -5 0
v -29 -5 0
v -30 -6 0
v -31 -6 0
v -31 -5 0
v -30 -5 0
v -33 -6 0
v -34 -6 0
v -34 -5 0
v -33 -5 0
v -34 -6 0
v -35 -6 0
v -35 -5 0
v -34 -5 0
v -38 -6 0
v -39 -6 0
v -39 -5 0
v -38 -5 0
v -39 -6 0
v -40 -6 0
v -40 -5 0
v -39 -5 0
v -51 -6 0
v -52 -6 0
v -52 -5 0
v -51 -5 0
v -52 -6 0
v -53 -6 0
v -53 -5 0
v -52 -5 0
v -55 -6 0
v -56 -6 0
v -56 -5 0
v -55 -5 0
v -56 -6 0
v -57 -6 0
v -57 -5 0
v -56 -5 0
v -57 -6 0
v -58 -6 0
v -58 -5 0
v -57 -5 0
v -58 -6 0
v -59 -6 0
v -59 -5 0
v -58 -5 0
v -59 -6 0
v -60 -6 0
v -60 -5 0
v -59 -5 0
v -60 -6 0
v -61 -6 0
v -61 -5 0
v -60 -5 0
v -61 -6 0
v -62 -6 0
v -62 -5 0
v -61 -5 0

# Texture cooridinates (Count = 40)
vt 0.75 0.46875
vt 0.71875 0.46875
vt 0.71875 0.5
vt 0.75 0.5
vt 0.6875 0.46875
vt 0.6875 0.5
vt 0.625 0.46875
vt 0.59375 0.46875
vt 0.59375 0.5
vt 0.625 0.5
vt 0.5625 0.46875
vt 0.5625 0.5
vt 0.5 0.46875
vt 0.53125 0.46875
vt 0.53125 0.5
vt 0.5 0.5
vt 0.75 0.4375
vt 0.71875 0.4375
vt 0.6875 0.4375
vt 0.625 0.4375
vt 0.59375 0.4375
vt 0.5625 0.4375
vt 0.5 0.4375
vt 0.53125 0.4375
vt 0.6875 0.40625
vt 0.71875 0.40625
vt 0.75 0.40625
vt 0.625 0.40625
vt 0.59375 0.40625
vt 0.5625 0.40625
vt 0.5 0.40625
vt 0.53125 0.40625
vt 0.6875 0.375
vt 0.71875 0.375
vt 0.75 0.375
vt 0.625 0.375
vt 0.59375 0.375
vt 0.5625 0.375
vt 0.5 0.375
vt 0.53125 0.375

# Normal
vn 0 0 -1

# Mesh description
g Level01-A-_mesh_0022

# Faces
f 1/1/1 2/2/1 3/3/1 4/4/1
f 5/2/1 6/5/1 7/6/1 8/3/1
f 9/7/1 10/8/1 11/9/1 12/10/1
f 13/8/1 14/11/1 15/12/1 16/9/1
f 17/11/1 18/8/1 19/9/1 20/12/1
f 21/8/1 22/7/1 23/10/1 24/9/1
f 25/13/1 26/14/1 27/15/1 28/16/1
f 29/8/1 30/7/1 31/10/1 32/9/1
f 33/7/1 34/8/1 35/9/1 36/10/1
f 37/8/1 38/11/1 39/12/1 40/9/1
f 41/11/1 42/8/1 43/9/1 44/12/1
f 45/17/1 46/18/1 47/2/1 48/1/1
f 49/18/1 50/19/1 51/5/1 52/2/1
f 53/20/1 54/21/1 55/8/1 56/7/1
f 57/21/1 58/22/1 59/11/1 60/8/1
f 61/22/1 62/21/1 63/8/1 64/11/1
f 65/21/1 66/20/1 67/7/1 68/8/1
f 69/23/1 70/24/1 71/14/1 72/13/1
f 73/21/1 74/20/1 75/7/1 76/8/1
f 77/20/1 78/21/1 79/8/1 80/7/1
f 81/21/1 82/22/1 83/11/1 84/8/1
f 85/22/1 86/21/1 87/8/1 88/11/1
f 89/25/1 90/26/1 91/18/1 92/19/1
f 93/25/1 94/26/1 95/18/1 96/19/1
f 97/26/1 98/27/1 99/17/1 100/18/1
f 101/28/1 102/29/1 103/21/1 104/20/1
f 105/29/1 106/30/1 107/22/1 108/21/1
f 109/30/1 110/29/1 111/21/1 112/22/1
f 113/29/1 114/28/1 115/20/1 116/21/1
f 117/31/1 118/32/1 119/24/1 120/23/1
f 121/29/1 122/28/1 123/20/1 124/21/1
f 125/28/1 126/29/1 127/21/1 128/20/1
f 129/29/1 130/30/1 131/22/1 132/21/1
f 133/30/1 134/29/1 135/21/1 136/22/1
f 137/27/1 138/26/1 139/18/1 140/17/1
f 141/26/1 142/25/1 143/19/1 144/18/1
f 145/25/1 146/26/1 147/18/1 148/19/1
f 149/26/1 150/27/1 151/17/1 152/18/1
f 153/27/1 154/26/1 155/18/1 156/17/1
f 157/26/1 158/25/1 159/19/1 160/18/1
f 161/33/1 162/34/1 163/26/1 164/25/1
f 165/33/1 166/34/1 167/26/1 168/25/1
f 169/34/1 170/35/1 171/27/1 172/26/1
f 173/25/1 174/26/1 175/18/1 176/19/1
f 177/26/1 178/27/1 179/17/1 180/18/1
f 181/36/1 182/37/1 183/29/1 184/28/1
f 185/37/1 186/38/1 187/30/1 188/29/1
f 189/38/1 190/37/1 191/29/1 192/30/1
f 193/37/1 194/36/1 195/28/1 196/29/1
f 197/39/1 198/40/1 199/32/1 200/31/1
f 201/37/1 202/36/1 203/28/1 204/29/1
f 205/36/1 206/37/1 207/29/1 208/28/1
f 209/37/1 210/38/1 211/30/1 212/29/1
f 213/38/1 214/37/1 215/29/1 216/30/1

